<?xml version="1.0" encoding="utf-8"?>
<!-- Generator: Adobe Illustrator 21.0.2, SVG Export Plug-In . SVG Version: 6.00 Build 0)  -->
<svg version="1.1" id="Layer_1" xmlns="http://www.w3.org/2000/svg" xmlns:xlink="http://www.w3.org/1999/xlink" x="0px" y="0px"
	 viewBox="0 0 307 1491" style="enable-background:new 0 0 307 1491;" xml:space="preserve">
<style type="text/css">
	.st0{fill:url(#SVGID_1_);}
	.st1{fill:url(#SVGID_2_);}
	.st2{fill:url(#SVGID_3_);}
	.st3{fill:url(#SVGID_4_);}
	.st4{fill:url(#SVGID_5_);}
	.st5{fill:url(#SVGID_6_);}
	.st6{fill:url(#SVGID_7_);}
	.st7{fill:url(#SVGID_8_);}
	.st8{fill:url(#SVGID_9_);}
	.st9{fill:url(#SVGID_10_);}
	.st10{fill:url(#SVGID_11_);}
	.st11{fill:url(#SVGID_12_);}
	.st12{fill:url(#SVGID_13_);}
	.st13{fill:url(#SVGID_14_);}
	.st14{fill:url(#SVGID_15_);}
	.st15{fill:url(#SVGID_16_);}
	.st16{fill:url(#SVGID_17_);}
	.st17{fill:url(#SVGID_18_);}
	.st18{fill:url(#SVGID_19_);}
	.st19{fill:url(#SVGID_20_);}
	.st20{fill:url(#SVGID_21_);}
	.st21{fill:url(#SVGID_22_);}
	.st22{fill:url(#SVGID_23_);}
	.st23{fill:url(#SVGID_24_);}
	.st24{fill:url(#SVGID_25_);}
	.st25{fill:url(#SVGID_26_);}
	.st26{fill:url(#SVGID_27_);}
	.st27{fill:url(#SVGID_28_);}
	.st28{fill:url(#SVGID_29_);}
	.st29{fill:url(#SVGID_30_);}
	.st30{fill:url(#SVGID_31_);}
	.st31{fill:url(#SVGID_32_);}
	.st32{fill:url(#SVGID_33_);}
	.st33{fill:url(#SVGID_34_);}
	.st34{fill:url(#SVGID_35_);}
	.st35{fill:#FFFFFF;}
	.st36{fill:#00C8C8;}
</style>
<linearGradient id="SVGID_1_" gradientUnits="userSpaceOnUse" x1="-74.3219" y1="2240.5518" x2="824.0682" y2="-1312.5079" gradientTransform="matrix(1 0 0 -1 0 1492)">
	<stop  offset="0" style="stop-color:#93278F"/>
	<stop  offset="0.8308" style="stop-color:#0071BC"/>
	<stop  offset="1" style="stop-color:#1B1464"/>
</linearGradient>
<rect y="-2.1" class="st0" width="307" height="309.1"/>
<linearGradient id="SVGID_2_" gradientUnits="userSpaceOnUse" x1="-13.9798" y1="2249.6436" x2="879.6019" y2="-1284.399" gradientTransform="matrix(1 0 0 -1 0 1492)">
	<stop  offset="0" style="stop-color:#93278F"/>
	<stop  offset="0.8308" style="stop-color:#0071BC"/>
	<stop  offset="1" style="stop-color:#1B1464"/>
</linearGradient>
<rect x="254" y="334" class="st1" width="53" height="146"/>
<linearGradient id="SVGID_3_" gradientUnits="userSpaceOnUse" x1="-89.3878" y1="2230.5767" x2="804.1939" y2="-1303.4659" gradientTransform="matrix(1 0 0 -1 0 1492)">
	<stop  offset="0" style="stop-color:#93278F"/>
	<stop  offset="0.8308" style="stop-color:#0071BC"/>
	<stop  offset="1" style="stop-color:#1B1464"/>
</linearGradient>
<rect x="183" y="407" class="st2" width="53" height="73"/>
<linearGradient id="SVGID_4_" gradientUnits="userSpaceOnUse" x1="-125.9867" y1="2221.3225" x2="767.5949" y2="-1312.7201" gradientTransform="matrix(1 0 0 -1 0 1492)">
	<stop  offset="0" style="stop-color:#93278F"/>
	<stop  offset="0.8308" style="stop-color:#0071BC"/>
	<stop  offset="1" style="stop-color:#1B1464"/>
</linearGradient>
<rect x="183" y="524" class="st3" width="53" height="147"/>
<linearGradient id="SVGID_5_" gradientUnits="userSpaceOnUse" x1="-59.2532" y1="2238.1963" x2="834.3285" y2="-1295.8467" gradientTransform="matrix(1 0 0 -1 0 1492)">
	<stop  offset="0" style="stop-color:#93278F"/>
	<stop  offset="0.8308" style="stop-color:#0071BC"/>
	<stop  offset="1" style="stop-color:#1B1464"/>
</linearGradient>
<rect x="254" y="524" class="st4" width="53" height="147"/>
<linearGradient id="SVGID_6_" gradientUnits="userSpaceOnUse" x1="-67.0771" y1="2055.7395" x2="718.531" y2="-1051.2765" gradientTransform="matrix(1 0 0 -1 0 1492)">
	<stop  offset="0" style="stop-color:#93278F"/>
	<stop  offset="0.8308" style="stop-color:#0071BC"/>
	<stop  offset="1" style="stop-color:#1B1464"/>
</linearGradient>
<path class="st5" d="M284.5,696h-79c-12.4,0-22.5-10.1-22.5-22.5v-6c0-12.4,10.1-22.5,22.5-22.5h79c12.4,0,22.5,10.1,22.5,22.5v6
	C307,685.9,296.9,696,284.5,696z"/>
<linearGradient id="SVGID_7_" gradientUnits="userSpaceOnUse" x1="-271.4724" y1="2184.5366" x2="622.1092" y2="-1349.506" gradientTransform="matrix(1 0 0 -1 0 1492)">
	<stop  offset="0" style="stop-color:#93278F"/>
	<stop  offset="0.8308" style="stop-color:#0071BC"/>
	<stop  offset="1" style="stop-color:#1B1464"/>
</linearGradient>
<rect x="31" y="550" class="st6" width="54" height="121"/>
<linearGradient id="SVGID_8_" gradientUnits="userSpaceOnUse" x1="-205.6788" y1="2201.1726" x2="687.9029" y2="-1332.8704" gradientTransform="matrix(1 0 0 -1 0 1492)">
	<stop  offset="0" style="stop-color:#93278F"/>
	<stop  offset="0.8308" style="stop-color:#0071BC"/>
	<stop  offset="1" style="stop-color:#1B1464"/>
</linearGradient>
<rect x="101" y="550" class="st7" width="54" height="121"/>
<linearGradient id="SVGID_9_" gradientUnits="userSpaceOnUse" x1="-211.0469" y1="2023.9808" x2="574.5612" y2="-1083.0353" gradientTransform="matrix(1 0 0 -1 0 1492)">
	<stop  offset="0" style="stop-color:#93278F"/>
	<stop  offset="0.8308" style="stop-color:#0071BC"/>
	<stop  offset="1" style="stop-color:#1B1464"/>
</linearGradient>
<path class="st8" d="M132.5,696h-79C41.1,696,31,685.9,31,673.5v-6c0-12.4,10.1-22.5,22.5-22.5h79c12.4,0,22.5,10.1,22.5,22.5v6
	C155,685.9,144.9,696,132.5,696z"/>
<linearGradient id="SVGID_10_" gradientUnits="userSpaceOnUse" x1="-186.3295" y1="2046.7256" x2="600.5739" y2="-1065.4135" gradientTransform="matrix(1 0 0 -1 0 1492)">
	<stop  offset="0" style="stop-color:#93278F"/>
	<stop  offset="0.8308" style="stop-color:#0071BC"/>
	<stop  offset="1" style="stop-color:#1B1464"/>
</linearGradient>
<path class="st9" d="M132.5,576h-79C41.1,576,31,565.9,31,553.5v-7c0-12.4,10.1-22.5,22.5-22.5h79c12.4,0,22.5,10.1,22.5,22.5v7
	C155,565.9,144.9,576,132.5,576z"/>
<linearGradient id="SVGID_11_" gradientUnits="userSpaceOnUse" x1="-102.3877" y1="2227.2896" x2="791.194" y2="-1306.7531" gradientTransform="matrix(1 0 0 -1 0 1492)">
	<stop  offset="0" style="stop-color:#93278F"/>
	<stop  offset="0.8308" style="stop-color:#0071BC"/>
	<stop  offset="1" style="stop-color:#1B1464"/>
</linearGradient>
<rect x="254" y="714" class="st10" width="53" height="130"/>
<linearGradient id="SVGID_12_" gradientUnits="userSpaceOnUse" x1="-152.533" y1="2214.6104" x2="741.0486" y2="-1319.4323" gradientTransform="matrix(1 0 0 -1 0 1492)">
	<stop  offset="0" style="stop-color:#93278F"/>
	<stop  offset="0.8308" style="stop-color:#0071BC"/>
	<stop  offset="1" style="stop-color:#1B1464"/>
</linearGradient>
<rect x="254" y="904" class="st11" width="53" height="172"/>
<linearGradient id="SVGID_13_" gradientUnits="userSpaceOnUse" x1="-341.2614" y1="2166.8904" x2="552.3203" y2="-1367.1522" gradientTransform="matrix(1 0 0 -1 0 1492)">
	<stop  offset="0" style="stop-color:#93278F"/>
	<stop  offset="0.8308" style="stop-color:#0071BC"/>
	<stop  offset="1" style="stop-color:#1B1464"/>
</linearGradient>
<rect x="101" y="1095" class="st12" width="54" height="172"/>
<linearGradient id="SVGID_14_" gradientUnits="userSpaceOnUse" x1="-242.8422" y1="2188.7759" x2="650.7396" y2="-1345.2672" gradientTransform="matrix(1 0 0 -1 0 1492)">
	<stop  offset="0" style="stop-color:#93278F"/>
	<stop  offset="0.8308" style="stop-color:#0071BC"/>
	<stop  offset="1" style="stop-color:#1B1464"/>
</linearGradient>
<rect x="254" y="1287" class="st13" width="53" height="172"/>
<linearGradient id="SVGID_15_" gradientUnits="userSpaceOnUse" x1="-276.2792" y1="2180.3213" x2="617.3024" y2="-1353.7214" gradientTransform="matrix(1 0 0 -1 0 1492)">
	<stop  offset="0" style="stop-color:#93278F"/>
	<stop  offset="0.8308" style="stop-color:#0071BC"/>
	<stop  offset="1" style="stop-color:#1B1464"/>
</linearGradient>
<polygon class="st14" points="300.1,1439 254,1459 189.7,1306.8 236,1287 "/>
<linearGradient id="SVGID_16_" gradientUnits="userSpaceOnUse" x1="-309.5757" y1="2171.9023" x2="584.006" y2="-1362.1406" gradientTransform="matrix(1 0 0 -1 0 1492)">
	<stop  offset="0" style="stop-color:#93278F"/>
	<stop  offset="0.8308" style="stop-color:#0071BC"/>
	<stop  offset="1" style="stop-color:#1B1464"/>
</linearGradient>
<rect x="183" y="1287" class="st15" width="53" height="172"/>
<linearGradient id="SVGID_17_" gradientUnits="userSpaceOnUse" x1="-155.0046" y1="2213.9856" x2="738.5771" y2="-1320.0574" gradientTransform="matrix(1 0 0 -1 0 1492)">
	<stop  offset="0" style="stop-color:#93278F"/>
	<stop  offset="0.8308" style="stop-color:#0071BC"/>
	<stop  offset="1" style="stop-color:#1B1464"/>
</linearGradient>
<rect x="183" y="834" class="st16" width="124" height="52"/>
<linearGradient id="SVGID_18_" gradientUnits="userSpaceOnUse" x1="-27.7231" y1="2090.5979" x2="759.1803" y2="-1021.5413" gradientTransform="matrix(1 0 0 -1 0 1492)">
	<stop  offset="0" style="stop-color:#93278F"/>
	<stop  offset="0.8308" style="stop-color:#0071BC"/>
	<stop  offset="1" style="stop-color:#1B1464"/>
</linearGradient>
<path class="st17" d="M284.5,506h-79c-12.4,0-22.5-10.1-22.5-22.5v-7c0-12.4,10.1-22.5,22.5-22.5h79c12.4,0,22.5,10.1,22.5,22.5v7
	C307,495.9,296.9,506,284.5,506z"/>
<linearGradient id="SVGID_19_" gradientUnits="userSpaceOnUse" x1="-160.4054" y1="2212.6199" x2="733.1762" y2="-1321.4227" gradientTransform="matrix(1 0 0 -1 0 1492)">
	<stop  offset="0" style="stop-color:#93278F"/>
	<stop  offset="0.8308" style="stop-color:#0071BC"/>
	<stop  offset="1" style="stop-color:#1B1464"/>
</linearGradient>
<rect x="101" y="334" class="st18" width="54" height="172"/>
<linearGradient id="SVGID_20_" gradientUnits="userSpaceOnUse" x1="-226.199" y1="2195.9839" x2="667.3827" y2="-1338.059" gradientTransform="matrix(1 0 0 -1 0 1492)">
	<stop  offset="0" style="stop-color:#93278F"/>
	<stop  offset="0.8308" style="stop-color:#0071BC"/>
	<stop  offset="1" style="stop-color:#1B1464"/>
</linearGradient>
<rect x="31" y="334" class="st19" width="54" height="172"/>
<linearGradient id="SVGID_21_" gradientUnits="userSpaceOnUse" x1="-353.2254" y1="2454.8076" x2="704.4267" y2="-1728.1202" gradientTransform="matrix(1 0 0 -1 0 1492)">
	<stop  offset="0" style="stop-color:#93278F"/>
	<stop  offset="0.8308" style="stop-color:#0071BC"/>
	<stop  offset="1" style="stop-color:#1B1464"/>
</linearGradient>
<rect x="56" y="775" class="st20" width="73" height="50"/>
<linearGradient id="SVGID_22_" gradientUnits="userSpaceOnUse" x1="-224.393" y1="2062.1775" x2="592.2505" y2="-1167.5811" gradientTransform="matrix(1 0 0 -1 0 1492)">
	<stop  offset="0" style="stop-color:#93278F"/>
	<stop  offset="0.8308" style="stop-color:#0071BC"/>
	<stop  offset="1" style="stop-color:#1B1464"/>
</linearGradient>
<rect x="57" y="714" class="st21" width="98" height="45"/>
<linearGradient id="SVGID_23_" gradientUnits="userSpaceOnUse" x1="-277.5357" y1="2038.5696" x2="535.8832" y2="-1178.4357" gradientTransform="matrix(1 0 0 -1 0 1492)">
	<stop  offset="0" style="stop-color:#93278F"/>
	<stop  offset="0.8308" style="stop-color:#0071BC"/>
	<stop  offset="1" style="stop-color:#1B1464"/>
</linearGradient>
<rect x="31" y="841" class="st22" width="96" height="45"/>
<linearGradient id="SVGID_24_" gradientUnits="userSpaceOnUse" x1="-274.0783" y1="2035.8425" x2="533.9033" y2="-1159.6588" gradientTransform="matrix(1 0 0 -1 0 1492)">
	<stop  offset="0" style="stop-color:#93278F"/>
	<stop  offset="0.8308" style="stop-color:#0071BC"/>
	<stop  offset="1" style="stop-color:#1B1464"/>
</linearGradient>
<path class="st23" d="M58,825L58,825c-14.9,0-27-12.1-27-27v-57c0-14.9,12.1-27,27-27l0,0c14.9,0,27,12.1,27,27v57
	C85,812.9,72.9,825,58,825z"/>
<linearGradient id="SVGID_25_" gradientUnits="userSpaceOnUse" x1="-220.99" y1="2041.7269" x2="586.9916" y2="-1153.7744" gradientTransform="matrix(1 0 0 -1 0 1492)">
	<stop  offset="0" style="stop-color:#93278F"/>
	<stop  offset="0.8308" style="stop-color:#0071BC"/>
	<stop  offset="1" style="stop-color:#1B1464"/>
</linearGradient>
<path class="st24" d="M128,886L128,886c-14.9,0-27-12.1-27-27v-57c0-14.9,12.1-27,27-27l0,0c14.9,0,27,12.1,27,27v57
	C155,873.9,142.9,886,128,886z"/>
<linearGradient id="SVGID_26_" gradientUnits="userSpaceOnUse" x1="-285.1251" y1="2060.3003" x2="546.6282" y2="-1229.2162" gradientTransform="matrix(1 0 0 -1 0 1492)">
	<stop  offset="0" style="stop-color:#93278F"/>
	<stop  offset="0.8308" style="stop-color:#0071BC"/>
	<stop  offset="1" style="stop-color:#1B1464"/>
</linearGradient>
<rect x="77" y="965" class="st25" width="61" height="39"/>
<linearGradient id="SVGID_27_" gradientUnits="userSpaceOnUse" x1="-260.6739" y1="1964.2513" x2="516.4495" y2="-1109.2081" gradientTransform="matrix(1 0 0 -1 0 1492)">
	<stop  offset="0" style="stop-color:#93278F"/>
	<stop  offset="0.8308" style="stop-color:#0071BC"/>
	<stop  offset="1" style="stop-color:#1B1464"/>
</linearGradient>
<path class="st26" d="M132.5,949h-79C41.1,949,31,938.9,31,926.5l0,0c0-12.4,10.1-22.5,22.5-22.5h79c12.4,0,22.5,10.1,22.5,22.5l0,0
	C155,938.9,144.9,949,132.5,949z"/>
<linearGradient id="SVGID_28_" gradientUnits="userSpaceOnUse" x1="-361.6628" y1="2161.7319" x2="531.9189" y2="-1372.3107" gradientTransform="matrix(1 0 0 -1 0 1492)">
	<stop  offset="0" style="stop-color:#93278F"/>
	<stop  offset="0.8308" style="stop-color:#0071BC"/>
	<stop  offset="1" style="stop-color:#1B1464"/>
</linearGradient>
<rect x="31" y="904" class="st27" width="54" height="172"/>
<linearGradient id="SVGID_29_" gradientUnits="userSpaceOnUse" x1="-255.3624" y1="2048.667" x2="566.8859" y2="-1203.2582" gradientTransform="matrix(1 0 0 -1 0 1492)">
	<stop  offset="0" style="stop-color:#93278F"/>
	<stop  offset="0.8308" style="stop-color:#0071BC"/>
	<stop  offset="1" style="stop-color:#1B1464"/>
</linearGradient>
<path class="st28" d="M132.5,1015h-9c-12.4,0-22.5-10.1-22.5-22.5v-66c0-12.4,10.1-22.5,22.5-22.5h9c12.4,0,22.5,10.1,22.5,22.5v66
	C155,1004.9,144.9,1015,132.5,1015z"/>
<linearGradient id="SVGID_30_" gradientUnits="userSpaceOnUse" x1="-193.3022" y1="2204.302" x2="700.2795" y2="-1329.741" gradientTransform="matrix(1 0 0 -1 0 1492)">
	<stop  offset="0" style="stop-color:#93278F"/>
	<stop  offset="0.8308" style="stop-color:#0071BC"/>
	<stop  offset="1" style="stop-color:#1B1464"/>
</linearGradient>
<rect x="45" y="395" class="st29" width="96" height="50"/>
<linearGradient id="SVGID_31_" gradientUnits="userSpaceOnUse" x1="-219.0732" y1="2197.7856" x2="674.5084" y2="-1336.257" gradientTransform="matrix(1 0 0 -1 0 1492)">
	<stop  offset="0" style="stop-color:#93278F"/>
	<stop  offset="0.8308" style="stop-color:#0071BC"/>
	<stop  offset="1" style="stop-color:#1B1464"/>
</linearGradient>
<rect x="209" y="1156" class="st30" width="98" height="50"/>
<linearGradient id="SVGID_32_" gradientUnits="userSpaceOnUse" x1="-216.2009" y1="2198.512" x2="677.3808" y2="-1335.5308" gradientTransform="matrix(1 0 0 -1 0 1492)">
	<stop  offset="0" style="stop-color:#93278F"/>
	<stop  offset="0.8308" style="stop-color:#0071BC"/>
	<stop  offset="1" style="stop-color:#1B1464"/>
</linearGradient>
<rect x="183" y="1095" class="st31" width="124" height="45"/>
<linearGradient id="SVGID_33_" gradientUnits="userSpaceOnUse" x1="-197.9253" y1="2203.1331" x2="695.6564" y2="-1330.9099" gradientTransform="matrix(1 0 0 -1 0 1492)">
	<stop  offset="0" style="stop-color:#93278F"/>
	<stop  offset="0.8308" style="stop-color:#0071BC"/>
	<stop  offset="1" style="stop-color:#1B1464"/>
</linearGradient>
<rect x="254" y="1095" class="st32" width="53" height="172"/>
<linearGradient id="SVGID_34_" gradientUnits="userSpaceOnUse" x1="-349.283" y1="2300.7344" x2="609.0049" y2="-1489.2164" gradientTransform="matrix(1 0 0 -1 0 1492)">
	<stop  offset="0" style="stop-color:#93278F"/>
	<stop  offset="0.8308" style="stop-color:#0071BC"/>
	<stop  offset="1" style="stop-color:#1B1464"/>
</linearGradient>
<polygon class="st33" points="155,1076 101,1076 80.2,999.5 126.6,979.9 "/>
<linearGradient id="SVGID_35_" gradientUnits="userSpaceOnUse" x1="-246.8531" y1="2190.7617" x2="646.7286" y2="-1343.2812" gradientTransform="matrix(1 0 0 -1 0 1492)">
	<stop  offset="0" style="stop-color:#93278F"/>
	<stop  offset="0.8308" style="stop-color:#0071BC"/>
	<stop  offset="1" style="stop-color:#1B1464"/>
</linearGradient>
<rect x="183" y="1222" class="st34" width="123" height="45"/>
<g>
	<path class="st35" d="M191.2,284.4c-11.2,0-19.4-4.8-24.3-14.4l-0.8-1.6l13.4-8.2l1,1.8c1.5,2.6,3,4.5,4.5,5.7
		c1.4,1.1,3.3,1.6,5.8,1.6c2.8,0,4.8-0.8,6.1-2.3c1.4-1.6,2.1-4.2,2.1-7.7v-57.8h16.3v58c0,8-2.2,14.2-6.7,18.5
		C204.2,282.3,198.3,284.4,191.2,284.4z"/>
	<polygon class="st35" points="266.7,283.4 266.7,250.8 240.7,250.8 240.7,283.4 224.4,283.4 224.4,201.5 240.7,201.5 240.7,236 
		266.7,236 266.7,201.5 282.9,201.5 282.9,283.4 	"/>
</g>
<rect y="1287" class="st36" width="155" height="204"/>
<g>
	<path class="st35" d="M77.5,1360c-4.7,0-8.8-1.6-12.2-4.9c-3.4-3.2-5.1-7.3-5.1-12.1c0-4.9,1.7-8.9,5.1-12.1
		c3.4-3.2,7.5-4.9,12.2-4.9c4.6,0,8.7,1.6,12.1,4.9c3.5,3.2,5.2,7.3,5.2,12.1c0,4.9-1.7,8.9-5.2,12.1
		C86.2,1358.4,82.1,1360,77.5,1360z M64.5,1426l5.9-20.3c-3.2-1-5.8-2.9-7.5-5.6c-1.8-2.7-2.7-5.9-2.7-9.5c0-4.9,1.7-8.8,5-11.9
		c3.4-3.1,7.3-4.6,12-4.6c4.9,0,9,1.5,12.5,4.6s5.2,7,5.2,11.9c0,4.5-2.3,10.5-6.8,17.9L77.7,1426H64.5z"/>
</g>
</svg>
